<svg xmlns="http://www.w3.org/2000/svg" xmlns:xlink="http://www.w3.org/1999/xlink" width="500" zoomAndPan="magnify" viewBox="0 0 375 374.999991" height="500" preserveAspectRatio="xMidYMid meet" version="1.0"><defs><g/><clipPath id="b1b17d1fce"><path d="M 261.96875 37.5 L 337.5 37.5 L 337.5 113.03125 L 261.96875 113.03125 Z M 261.96875 37.5 " clip-rule="nonzero"/></clipPath><clipPath id="9db50308a9"><path d="M 299.734375 37.5 C 278.878906 37.5 261.96875 54.40625 261.96875 75.265625 C 261.96875 96.121094 278.878906 113.03125 299.734375 113.03125 C 320.59375 113.03125 337.5 96.121094 337.5 75.265625 C 337.5 54.40625 320.59375 37.5 299.734375 37.5 Z M 299.734375 37.5 " clip-rule="nonzero"/></clipPath><clipPath id="7b632fd968"><path d="M 271.777344 55 L 327.90625 55 L 327.90625 95.605469 L 271.777344 95.605469 Z M 271.777344 55 " clip-rule="nonzero"/></clipPath></defs><rect x="-37.5" width="450" fill="#ffffff" y="-37.499999" height="449.999989" fill-opacity="1"/><rect x="-37.5" width="450" fill="#bdff03" y="-37.499999" height="449.999989" fill-opacity="1"/><g fill="#8511b4" fill-opacity="1"><g transform="translate(37.500002, 257.644283)"><g><path d="M 5.023438 -61.121094 L 5.023438 0 L 31.566406 0 C 50.90625 0 62.960938 -12.054688 62.960938 -28.632812 L 62.960938 -32.484375 C 62.960938 -49.0625 50.90625 -61.121094 31.566406 -61.121094 Z M 45.964844 -29.054688 C 45.964844 -20.597656 40.019531 -14.652344 29.554688 -14.652344 L 21.769531 -14.652344 L 21.769531 -46.46875 L 29.554688 -46.46875 C 40.019531 -46.46875 45.964844 -40.523438 45.964844 -32.066406 Z M 45.964844 -29.054688 "/></g></g></g><g fill="#8511b4" fill-opacity="1"><g transform="translate(102.29781, 257.644283)"><g><path d="M 21.433594 -57.351562 C 21.433594 -52.414062 18.253906 -49.316406 12.894531 -49.316406 C 7.535156 -49.316406 4.355469 -52.414062 4.355469 -57.351562 C 4.355469 -62.207031 7.535156 -65.390625 12.894531 -65.390625 C 18.253906 -65.390625 21.433594 -62.207031 21.433594 -57.351562 Z M 20.929688 0 L 20.929688 -44.375 L 4.855469 -44.375 L 4.855469 0 Z M 20.929688 0 "/></g></g></g><g fill="#8511b4" fill-opacity="1"><g transform="translate(128.082994, 257.644283)"><g><path d="M 53.585938 0.921875 C 53.585938 -7.03125 48.5625 -11.972656 36.671875 -11.972656 L 20.597656 -11.972656 C 17.082031 -11.972656 16.242188 -12.644531 16.242188 -14.066406 C 16.242188 -15.40625 17.082031 -16.242188 20.34375 -16.242188 L 26.625 -16.242188 C 43.703125 -16.242188 50.066406 -22.605469 50.066406 -30.644531 L 50.066406 -31.0625 C 50.066406 -37.425781 46.300781 -42.617188 36.671875 -44.710938 C 37.59375 -46.46875 39.6875 -47.472656 43.871094 -47.472656 C 46.050781 -47.472656 48.394531 -47.222656 50.066406 -46.96875 L 50.066406 -60.953125 C 48.894531 -61.289062 47.390625 -61.621094 45.210938 -61.621094 C 38.011719 -61.621094 31.984375 -55.929688 31.3125 -45.464844 C 29.804688 -45.546875 28.300781 -45.628906 26.625 -45.628906 C 9.542969 -45.628906 3.179688 -39.265625 3.179688 -31.0625 L 3.179688 -30.726562 C 3.179688 -25.535156 5.777344 -21.097656 12.054688 -18.503906 C 5.695312 -16.996094 2.929688 -13.144531 2.929688 -8.625 C 2.929688 -4.019531 6.363281 0 12.726562 1.089844 C 6.53125 2.007812 4.019531 5.023438 4.019531 8.875 C 4.019531 13.394531 7.953125 17.917969 25.789062 17.917969 C 46.636719 17.917969 53.585938 10.96875 53.585938 0.921875 Z M 26.625 -35.667969 C 32.402344 -35.667969 34.410156 -33.65625 34.410156 -30.894531 C 34.410156 -28.132812 32.402344 -26.121094 26.625 -26.121094 C 20.847656 -26.121094 18.839844 -28.132812 18.839844 -30.894531 C 18.839844 -33.65625 20.847656 -35.667969 26.625 -35.667969 Z M 28.046875 7.953125 C 18.921875 7.953125 17.414062 6.195312 17.414062 4.101562 C 17.414062 1.925781 18.921875 0.167969 29.554688 0.167969 C 38.429688 0.167969 39.769531 1.675781 39.769531 3.683594 C 39.769531 5.777344 37.675781 7.953125 28.046875 7.953125 Z M 28.046875 7.953125 "/></g></g></g><g fill="#8511b4" fill-opacity="1"><g transform="translate(181.662579, 257.644283)"><g><path d="M 21.433594 -57.351562 C 21.433594 -52.414062 18.253906 -49.316406 12.894531 -49.316406 C 7.535156 -49.316406 4.355469 -52.414062 4.355469 -57.351562 C 4.355469 -62.207031 7.535156 -65.390625 12.894531 -65.390625 C 18.253906 -65.390625 21.433594 -62.207031 21.433594 -57.351562 Z M 20.929688 0 L 20.929688 -44.375 L 4.855469 -44.375 L 4.855469 0 Z M 20.929688 0 "/></g></g></g><g fill="#8511b4" fill-opacity="1"><g transform="translate(207.447762, 257.644283)"><g><path d="M 41.027344 -44.375 L 26.039062 -44.375 L 26.039062 -57.519531 L 16.828125 -57.519531 L 10.632812 -44.375 L 1.257812 -44.375 L 1.257812 -30.980469 L 10.046875 -30.980469 L 10.046875 -17.667969 C 10.046875 -4.605469 15.90625 1.257812 29.640625 1.257812 C 34.996094 1.257812 39.015625 0.503906 41.109375 0 L 41.109375 -13.3125 C 39.265625 -12.976562 36.503906 -12.558594 33.238281 -12.558594 C 27.378906 -12.558594 26.039062 -13.898438 26.039062 -20.011719 L 26.039062 -30.980469 L 41.027344 -30.980469 Z M 41.027344 -44.375 "/></g></g></g><g fill="#8511b4" fill-opacity="1"><g transform="translate(251.483487, 257.644283)"><g><path d="M 25.789062 -45.628906 C 11.136719 -45.628906 4.605469 -38.847656 3.347656 -28.886719 L 19.425781 -28.886719 C 20.011719 -31.480469 21.683594 -33.15625 25.621094 -33.15625 C 29.640625 -33.15625 31.480469 -31.648438 31.984375 -27.964844 L 26.039062 -27.042969 C 9.710938 -24.53125 2.34375 -19.757812 2.34375 -10.128906 C 2.34375 -3.769531 7.367188 1.257812 16.660156 1.257812 C 26.289062 1.257812 33.070312 -3.433594 35.667969 -11.554688 L 40.441406 0 L 47.976562 0 L 47.976562 -24.195312 C 47.976562 -38.261719 40.605469 -45.628906 25.789062 -45.628906 Z M 22.355469 -10.96875 C 19.925781 -10.96875 18.753906 -12.140625 18.753906 -13.648438 C 18.753906 -16.410156 22.4375 -18.167969 29.890625 -19.425781 L 32.402344 -19.84375 C 32.402344 -15.15625 28.132812 -10.96875 22.355469 -10.96875 Z M 22.355469 -10.96875 "/></g></g></g><g fill="#8511b4" fill-opacity="1"><g transform="translate(303.053837, 257.644283)"><g><path d="M 21.015625 -61.121094 L 4.941406 -61.121094 L 4.941406 0 L 21.015625 0 Z M 21.015625 -61.121094 "/></g></g></g><g fill="#8511b4" fill-opacity="1"><g transform="translate(43.385774, 184.37285)"><g><path d="M 38.679688 -61.121094 L 20.597656 -61.121094 L -0.417969 0 L 16.578125 0 L 19.925781 -10.550781 L 39.433594 -10.550781 L 42.785156 0 L 59.863281 0 Z M 35.332031 -23.527344 L 24.03125 -23.527344 L 29.640625 -41.445312 Z M 35.332031 -23.527344 "/></g></g></g><g fill="#8511b4" fill-opacity="1"><g transform="translate(102.825624, 184.37285)"><g><path d="M 21.015625 -61.121094 L 4.941406 -61.121094 L 4.941406 0 L 21.015625 0 Z M 21.015625 -61.121094 "/></g></g></g><g fill="#8511b4" fill-opacity="1"><g transform="translate(128.778236, 184.37285)"><g><path d="M 34.996094 -45.628906 C 26.707031 -45.628906 19.925781 -40.355469 17.75 -30.980469 L 12.390625 -44.375 L 4.855469 -44.375 L 4.855469 16.746094 L 20.929688 16.746094 L 20.929688 -7.871094 C 23.945312 -1.925781 29.136719 1.257812 34.996094 1.257812 C 44.960938 1.257812 53.585938 -7.367188 53.585938 -21.265625 L 53.585938 -23.109375 C 53.585938 -37.007812 44.960938 -45.628906 34.996094 -45.628906 Z M 29.21875 -12.644531 C 24.28125 -12.644531 20.929688 -15.992188 20.929688 -22.1875 C 20.929688 -28.382812 24.28125 -31.730469 29.21875 -31.730469 C 34.242188 -31.730469 37.425781 -28.550781 37.425781 -22.1875 C 37.425781 -15.824219 34.242188 -12.644531 29.21875 -12.644531 Z M 29.21875 -12.644531 "/></g></g></g><g fill="#8511b4" fill-opacity="1"><g transform="translate(184.450773, 184.37285)"><g><path d="M 34.410156 -45.628906 C 28.800781 -45.628906 23.695312 -42.449219 20.929688 -36.253906 L 20.929688 -61.121094 L 4.855469 -61.121094 L 4.855469 0 L 20.929688 0 L 20.929688 -22.105469 C 20.929688 -28.382812 23.945312 -31.398438 28.046875 -31.398438 C 31.898438 -31.398438 33.992188 -29.304688 33.992188 -23.441406 L 33.992188 0 L 50.066406 0 L 50.066406 -25.789062 C 50.066406 -38.679688 43.117188 -45.628906 34.410156 -45.628906 Z M 34.410156 -45.628906 "/></g></g></g><g fill="#8511b4" fill-opacity="1"><g transform="translate(238.281521, 184.37285)"><g><path d="M 25.789062 -45.628906 C 11.136719 -45.628906 4.605469 -38.847656 3.347656 -28.886719 L 19.425781 -28.886719 C 20.011719 -31.480469 21.683594 -33.15625 25.621094 -33.15625 C 29.640625 -33.15625 31.480469 -31.648438 31.984375 -27.964844 L 26.039062 -27.042969 C 9.710938 -24.53125 2.34375 -19.757812 2.34375 -10.128906 C 2.34375 -3.769531 7.367188 1.257812 16.660156 1.257812 C 26.289062 1.257812 33.070312 -3.433594 35.667969 -11.554688 L 40.441406 0 L 47.976562 0 L 47.976562 -24.195312 C 47.976562 -38.261719 40.605469 -45.628906 25.789062 -45.628906 Z M 22.355469 -10.96875 C 19.925781 -10.96875 18.753906 -12.140625 18.753906 -13.648438 C 18.753906 -16.410156 22.4375 -18.167969 29.890625 -19.425781 L 32.402344 -19.84375 C 32.402344 -15.15625 28.132812 -10.96875 22.355469 -10.96875 Z M 22.355469 -10.96875 "/></g></g></g><g clip-path="url(#b1b17d1fce)"><g clip-path="url(#9db50308a9)"><path fill="#8511b4" d="M 261.96875 37.5 L 337.5 37.5 L 337.5 113.03125 L 261.96875 113.03125 Z M 261.96875 37.5 " fill-opacity="1" fill-rule="nonzero"/></g></g><g clip-path="url(#7b632fd968)"><path fill="#fefefe" d="M 327.65625 90.136719 L 320.859375 95.867188 L 309.339844 82.203125 L 303.59375 75.382812 L 296.300781 66.734375 C 294.570312 65.449219 292.574219 64.796875 290.546875 64.796875 C 289.105469 64.796875 287.648438 65.125 286.257812 65.796875 C 282.777344 67.46875 280.703125 70.769531 280.703125 74.625 C 280.703125 76.339844 281.109375 77.8125 281.75 79.070312 C 282.910156 81.351562 284.867188 82.894531 286.75 83.671875 C 288.855469 84.546875 291.695312 84.832031 294.394531 83.648438 C 294.457031 83.621094 294.53125 83.578125 294.621094 83.523438 C 298.390625 81.167969 303.324219 81.960938 306.1875 85.359375 L 303.710938 87.835938 C 298.265625 93.28125 290.460938 94.835938 283.347656 91.886719 C 277.648438 89.527344 273.6875 84.8125 272.332031 79.070312 C 271.996094 77.640625 271.8125 76.15625 271.8125 74.625 C 271.8125 67.378906 275.871094 60.925781 282.402344 57.785156 C 288.9375 54.644531 296.507812 55.507812 302.167969 60.035156 L 302.789062 60.640625 L 309.898438 69.074219 L 321.117188 57.855469 L 327.402344 64.140625 L 318.804688 72.738281 L 315.648438 75.890625 Z M 327.65625 90.136719 " fill-opacity="1" fill-rule="nonzero"/></g></svg>