<svg xmlns="http://www.w3.org/2000/svg" xmlns:xlink="http://www.w3.org/1999/xlink" width="1366" zoomAndPan="magnify" viewBox="0 0 1024.5 576" height="768" preserveAspectRatio="xMidYMid meet" version="1.0"><defs><clipPath id="80177e6bd3"><path d="M 0 0.140625 L 1024 0.140625 L 1024 575.859375 L 0 575.859375 Z M 0 0.140625 " clip-rule="nonzero"/></clipPath><clipPath id="11ee210633"><path d="M 396.855469 172.855469 L 626.992188 172.855469 L 626.992188 402.992188 L 396.855469 402.992188 Z M 396.855469 172.855469 " clip-rule="nonzero"/></clipPath><clipPath id="0eeb8b32f3"><path d="M 557.625 195.871094 L 603.980469 195.871094 L 603.980469 242.222656 L 557.625 242.222656 Z M 557.625 195.871094 " clip-rule="nonzero"/></clipPath><clipPath id="05e3e553d6"><path d="M 580.804688 195.871094 C 568.003906 195.871094 557.625 206.246094 557.625 219.046875 C 557.625 231.847656 568.003906 242.222656 580.804688 242.222656 C 593.605469 242.222656 603.980469 231.847656 603.980469 219.046875 C 603.980469 206.246094 593.605469 195.871094 580.804688 195.871094 Z M 580.804688 195.871094 " clip-rule="nonzero"/></clipPath><clipPath id="89a3346dea"><path d="M 563.644531 207 L 598 207 L 598 231.53125 L 563.644531 231.53125 Z M 563.644531 207 " clip-rule="nonzero"/></clipPath><clipPath id="699276ce00"><path d="M 451.304688 420.894531 L 572.746094 420.894531 L 572.746094 465.121094 L 451.304688 465.121094 Z M 451.304688 420.894531 " clip-rule="nonzero"/></clipPath></defs><g clip-path="url(#80177e6bd3)"><path fill="#ffffff" d="M 0 0.140625 L 1024 0.140625 L 1024 575.859375 L 0 575.859375 Z M 0 0.140625 " fill-opacity="1" fill-rule="nonzero"/><path fill="#ffffff" d="M 0 0.140625 L 1024 0.140625 L 1024 575.859375 L 0 575.859375 Z M 0 0.140625 " fill-opacity="1" fill-rule="nonzero"/></g><g clip-path="url(#11ee210633)"><path fill="#ffffff" d="M 373.84375 149.84375 L 650.007812 149.84375 L 650.007812 426.007812 L 373.84375 426.007812 Z M 373.84375 149.84375 " fill-opacity="1" fill-rule="nonzero"/><path fill="#bdff03" d="M 373.84375 149.84375 L 650.007812 149.84375 L 650.007812 426.007812 L 373.84375 426.007812 Z M 373.84375 149.84375 " fill-opacity="1" fill-rule="nonzero"/></g><path fill="#8511b4" d="M 422.953125 293.460938 L 422.953125 330.972656 L 439.242188 330.972656 C 451.109375 330.972656 458.507812 323.574219 458.507812 313.402344 L 458.507812 311.035156 C 458.507812 300.863281 451.109375 293.460938 439.242188 293.460938 Z M 448.078125 313.140625 C 448.078125 318.332031 444.429688 321.980469 438.007812 321.980469 L 433.230469 321.980469 L 433.230469 302.453125 L 438.007812 302.453125 C 444.429688 302.453125 448.078125 306.101562 448.078125 311.292969 Z M 448.078125 313.140625 " fill-opacity="1" fill-rule="nonzero"/><path fill="#8511b4" d="M 472.789062 295.777344 C 472.789062 298.804688 470.839844 300.707031 467.550781 300.707031 C 464.261719 300.707031 462.308594 298.804688 462.308594 295.777344 C 462.308594 292.796875 464.261719 290.84375 467.550781 290.84375 C 470.839844 290.84375 472.789062 292.796875 472.789062 295.777344 Z M 472.480469 330.972656 L 472.480469 303.738281 L 462.617188 303.738281 L 462.617188 330.972656 Z M 472.480469 330.972656 " fill-opacity="1" fill-rule="nonzero"/><path fill="#8511b4" d="M 508.347656 331.539062 C 508.347656 326.65625 505.265625 323.625 497.964844 323.625 L 488.101562 323.625 C 485.945312 323.625 485.429688 323.210938 485.429688 322.339844 C 485.429688 321.519531 485.945312 321.003906 487.945312 321.003906 L 491.800781 321.003906 C 502.28125 321.003906 506.1875 317.097656 506.1875 312.164062 L 506.1875 311.910156 C 506.1875 308.003906 503.875 304.816406 497.964844 303.535156 C 498.53125 302.453125 499.816406 301.839844 502.382812 301.839844 C 503.722656 301.839844 505.160156 301.992188 506.1875 302.148438 L 506.1875 293.566406 C 505.46875 293.359375 504.542969 293.15625 503.207031 293.15625 C 498.789062 293.15625 495.089844 296.648438 494.675781 303.070312 C 493.753906 303.019531 492.828125 302.96875 491.800781 302.96875 C 481.316406 302.96875 477.414062 306.875 477.414062 311.910156 L 477.414062 312.117188 C 477.414062 315.300781 479.007812 318.023438 482.859375 319.617188 C 478.957031 320.542969 477.257812 322.90625 477.257812 325.679688 C 477.257812 328.503906 479.367188 330.972656 483.269531 331.640625 C 479.46875 332.203125 477.925781 334.054688 477.925781 336.417969 C 477.925781 339.191406 480.339844 341.96875 491.289062 341.96875 C 504.082031 341.96875 508.347656 337.703125 508.347656 331.539062 Z M 491.800781 309.082031 C 495.347656 309.082031 496.578125 310.316406 496.578125 312.011719 C 496.578125 313.707031 495.347656 314.941406 491.800781 314.941406 C 488.253906 314.941406 487.023438 313.707031 487.023438 312.011719 C 487.023438 310.316406 488.253906 309.082031 491.800781 309.082031 Z M 492.671875 335.851562 C 487.074219 335.851562 486.148438 334.773438 486.148438 333.488281 C 486.148438 332.15625 487.074219 331.074219 493.597656 331.074219 C 499.046875 331.074219 499.867188 332 499.867188 333.234375 C 499.867188 334.519531 498.582031 335.851562 492.671875 335.851562 Z M 492.671875 335.851562 " fill-opacity="1" fill-rule="nonzero"/><path fill="#8511b4" d="M 521.496094 295.777344 C 521.496094 298.804688 519.546875 300.707031 516.257812 300.707031 C 512.96875 300.707031 511.015625 298.804688 511.015625 295.777344 C 511.015625 292.796875 512.96875 290.84375 516.257812 290.84375 C 519.546875 290.84375 521.496094 292.796875 521.496094 295.777344 Z M 521.1875 330.972656 L 521.1875 303.738281 L 511.324219 303.738281 L 511.324219 330.972656 Z M 521.1875 330.972656 " fill-opacity="1" fill-rule="nonzero"/><path fill="#8511b4" d="M 549.347656 303.738281 L 540.148438 303.738281 L 540.148438 295.671875 L 534.496094 295.671875 L 530.691406 303.738281 L 524.9375 303.738281 L 524.9375 311.960938 L 530.332031 311.960938 L 530.332031 320.128906 C 530.332031 328.144531 533.929688 331.746094 542.359375 331.746094 C 545.644531 331.746094 548.109375 331.28125 549.394531 330.972656 L 549.394531 322.800781 C 548.265625 323.007812 546.570312 323.265625 544.566406 323.265625 C 540.96875 323.265625 540.148438 322.441406 540.148438 318.691406 L 540.148438 311.960938 L 549.347656 311.960938 Z M 549.347656 303.738281 " fill-opacity="1" fill-rule="nonzero"/><path fill="#8511b4" d="M 567.019531 302.96875 C 558.027344 302.96875 554.019531 307.132812 553.246094 313.246094 L 563.113281 313.246094 C 563.472656 311.652344 564.5 310.625 566.914062 310.625 C 569.382812 310.625 570.511719 311.550781 570.820312 313.808594 L 567.171875 314.375 C 557.152344 315.917969 552.628906 318.847656 552.628906 324.757812 C 552.628906 328.660156 555.710938 331.746094 561.414062 331.746094 C 567.324219 331.746094 571.488281 328.867188 573.082031 323.882812 L 576.011719 330.972656 L 580.636719 330.972656 L 580.636719 316.125 C 580.636719 307.492188 576.109375 302.96875 567.019531 302.96875 Z M 564.910156 324.242188 C 563.421875 324.242188 562.699219 323.523438 562.699219 322.597656 C 562.699219 320.902344 564.960938 319.824219 569.535156 319.050781 L 571.078125 318.792969 C 571.078125 321.671875 568.457031 324.242188 564.910156 324.242188 Z M 564.910156 324.242188 " fill-opacity="1" fill-rule="nonzero"/><path fill="#8511b4" d="M 595.738281 293.460938 L 585.875 293.460938 L 585.875 330.972656 L 595.738281 330.972656 Z M 595.738281 293.460938 " fill-opacity="1" fill-rule="nonzero"/><path fill="#8511b4" d="M 447.21875 248.496094 L 436.125 248.496094 L 423.226562 286.007812 L 433.65625 286.007812 L 435.710938 279.53125 L 447.683594 279.53125 L 449.738281 286.007812 L 460.21875 286.007812 Z M 445.164062 271.566406 L 438.230469 271.566406 L 441.671875 260.570312 Z M 445.164062 271.566406 " fill-opacity="1" fill-rule="nonzero"/><path fill="#8511b4" d="M 472.859375 248.496094 L 462.992188 248.496094 L 462.992188 286.007812 L 472.859375 286.007812 Z M 472.859375 248.496094 " fill-opacity="1" fill-rule="nonzero"/><path fill="#8511b4" d="M 497.363281 258.003906 C 492.277344 258.003906 488.117188 261.238281 486.78125 266.992188 L 483.492188 258.773438 L 478.867188 258.773438 L 478.867188 296.28125 L 488.730469 296.28125 L 488.730469 281.175781 C 490.582031 284.824219 493.769531 286.777344 497.363281 286.777344 C 503.480469 286.777344 508.773438 281.484375 508.773438 272.957031 L 508.773438 271.824219 C 508.773438 263.292969 503.480469 258.003906 497.363281 258.003906 Z M 493.820312 278.246094 C 490.789062 278.246094 488.730469 276.191406 488.730469 272.390625 C 488.730469 268.585938 490.789062 266.53125 493.820312 266.53125 C 496.902344 266.53125 498.855469 268.484375 498.855469 272.390625 C 498.855469 276.292969 496.902344 278.246094 493.820312 278.246094 Z M 493.820312 278.246094 " fill-opacity="1" fill-rule="nonzero"/><path fill="#8511b4" d="M 531.171875 258.003906 C 527.726562 258.003906 524.59375 259.953125 522.898438 263.757812 L 522.898438 248.496094 L 513.035156 248.496094 L 513.035156 286.007812 L 522.898438 286.007812 L 522.898438 272.441406 C 522.898438 268.585938 524.75 266.738281 527.265625 266.738281 C 529.628906 266.738281 530.914062 268.023438 530.914062 271.621094 L 530.914062 286.007812 L 540.777344 286.007812 L 540.777344 270.179688 C 540.777344 262.269531 536.515625 258.003906 531.171875 258.003906 Z M 531.171875 258.003906 " fill-opacity="1" fill-rule="nonzero"/><path fill="#8511b4" d="M 558.917969 258.003906 C 549.925781 258.003906 545.917969 262.164062 545.144531 268.277344 L 555.011719 268.277344 C 555.371094 266.6875 556.398438 265.65625 558.8125 265.65625 C 561.28125 265.65625 562.410156 266.582031 562.71875 268.84375 L 559.070312 269.410156 C 549.050781 270.949219 544.527344 273.878906 544.527344 279.789062 C 544.527344 283.691406 547.613281 286.777344 553.316406 286.777344 C 559.222656 286.777344 563.386719 283.898438 564.980469 278.914062 L 567.910156 286.007812 L 572.535156 286.007812 L 572.535156 271.15625 C 572.535156 262.523438 568.007812 258.003906 558.917969 258.003906 Z M 556.808594 279.273438 C 555.320312 279.273438 554.597656 278.554688 554.597656 277.628906 C 554.597656 275.933594 556.859375 274.855469 561.433594 274.085938 L 562.976562 273.828125 C 562.976562 276.703125 560.355469 279.273438 556.808594 279.273438 Z M 556.808594 279.273438 " fill-opacity="1" fill-rule="nonzero"/><g clip-path="url(#0eeb8b32f3)"><g clip-path="url(#05e3e553d6)"><path fill="#8511b4" d="M 557.625 195.871094 L 603.980469 195.871094 L 603.980469 242.222656 L 557.625 242.222656 Z M 557.625 195.871094 " fill-opacity="1" fill-rule="nonzero"/></g></g><g clip-path="url(#89a3346dea)"><path fill="#fefefe" d="M 597.9375 228.171875 L 593.769531 231.691406 L 586.699219 223.304688 L 583.171875 219.117188 L 578.695312 213.8125 C 577.632812 213.023438 576.410156 212.621094 575.164062 212.621094 C 574.28125 212.621094 573.386719 212.824219 572.53125 213.234375 C 570.398438 214.261719 569.125 216.289062 569.125 218.652344 C 569.125 219.707031 569.375 220.609375 569.765625 221.382812 C 570.476562 222.78125 571.679688 223.730469 572.835938 224.207031 C 574.128906 224.742188 575.871094 224.917969 577.527344 224.191406 C 577.566406 224.175781 577.609375 224.148438 577.664062 224.113281 C 579.980469 222.667969 583.007812 223.15625 584.765625 225.242188 L 583.242188 226.761719 C 579.902344 230.101562 575.113281 231.058594 570.746094 229.246094 C 567.25 227.800781 564.820312 224.90625 563.988281 221.382812 C 563.78125 220.503906 563.667969 219.59375 563.667969 218.652344 C 563.667969 214.207031 566.160156 210.246094 570.167969 208.320312 C 574.175781 206.390625 578.824219 206.921875 582.296875 209.699219 L 582.679688 210.070312 L 587.042969 215.246094 L 593.925781 208.363281 L 597.785156 212.21875 L 592.507812 217.496094 L 590.570312 219.429688 Z M 597.9375 228.171875 " fill-opacity="1" fill-rule="nonzero"/></g><g clip-path="url(#699276ce00)"><path fill="#8511b4" d="M 459.921875 436.203125 C 457.25 438.886719 455.773438 442.445312 455.773438 446.226562 C 455.773438 446.777344 455.8125 447.3125 455.882812 447.851562 C 455.894531 447.972656 455.910156 448.09375 455.921875 448.214844 C 455.988281 448.738281 456.097656 449.246094 456.21875 449.757812 C 456.230469 449.824219 456.257812 449.902344 456.285156 449.972656 C 456.40625 450.425781 456.550781 450.882812 456.726562 451.328125 C 456.765625 451.433594 456.808594 451.527344 456.847656 451.636719 C 457.046875 452.117188 457.261719 452.585938 457.519531 453.042969 C 457.53125 453.085938 457.546875 453.109375 457.570312 453.152344 C 453.800781 450.761719 451.441406 446.550781 451.441406 442.027344 C 451.441406 438.511719 452.808594 435.210938 455.292969 432.714844 C 457.773438 430.234375 461.085938 428.863281 464.601562 428.863281 L 469.152344 428.863281 L 469.152344 428.167969 C 469.152344 424.167969 472.398438 420.921875 476.398438 420.921875 C 478.828125 420.921875 481.109375 422.167969 482.4375 424.15625 C 482.207031 424.140625 481.980469 424.128906 481.753906 424.128906 C 477.3125 424.128906 473.675781 427.671875 473.5 432.085938 L 469.957031 432.085938 C 466.171875 432.085938 462.617188 433.5625 459.933594 436.230469 Z M 489.589844 429.84375 C 489.628906 429.949219 489.65625 430.058594 489.683594 430.164062 C 489.734375 430.378906 489.789062 430.59375 489.828125 430.808594 C 489.84375 430.902344 489.871094 431.011719 489.882812 431.105469 C 489.9375 431.414062 489.964844 431.734375 489.976562 432.058594 L 553.324219 432.058594 C 553.914062 432.058594 554.507812 432.113281 555.082031 432.179688 C 555.257812 432.207031 555.417969 432.230469 555.59375 432.257812 C 556.023438 432.324219 556.4375 432.421875 556.855469 432.527344 C 556.960938 432.554688 557.070312 432.566406 557.164062 432.59375 C 554.722656 430.191406 551.460938 428.851562 547.972656 428.851562 L 489.199219 428.851562 C 489.199219 428.851562 489.226562 428.917969 489.238281 428.945312 C 489.28125 429.039062 489.304688 429.117188 489.347656 429.214844 C 489.425781 429.414062 489.507812 429.628906 489.574219 429.84375 Z M 476.023438 465.054688 L 559.417969 465.054688 C 562.933594 465.054688 566.234375 463.683594 568.730469 461.203125 C 571.210938 458.71875 572.582031 455.40625 572.582031 451.890625 C 572.582031 447.339844 570.207031 443.113281 566.410156 440.738281 C 566.421875 440.78125 566.433594 440.804688 566.449219 440.847656 C 566.503906 440.96875 566.527344 441.089844 566.582031 441.210938 C 566.730469 441.597656 566.863281 442 566.984375 442.402344 C 567.039062 442.578125 567.078125 442.753906 567.121094 442.925781 C 567.214844 443.300781 567.28125 443.691406 567.347656 444.066406 C 567.375 444.226562 567.402344 444.402344 567.429688 444.5625 C 567.496094 445.113281 567.535156 445.664062 567.535156 446.214844 C 567.535156 450.011719 566.058594 453.566406 563.390625 456.222656 C 560.71875 458.894531 557.164062 460.371094 553.367188 460.371094 L 469.945312 460.371094 C 469.472656 460.371094 469.019531 460.34375 468.546875 460.289062 C 468.414062 460.289062 468.28125 460.261719 468.144531 460.234375 C 467.808594 460.195312 467.476562 460.140625 467.152344 460.074219 C 467.019531 460.046875 466.882812 460.023438 466.738281 459.996094 C 466.335938 459.902344 465.933594 459.792969 465.527344 459.660156 C 465.488281 459.660156 465.449219 459.632812 465.410156 459.617188 C 465.410156 459.617188 465.394531 459.617188 465.382812 459.617188 C 467.835938 463 471.78125 465.039062 476.023438 465.039062 Z M 468.9375 442.082031 C 468.84375 441.988281 468.683594 441.988281 468.574219 442.082031 L 467.394531 443.261719 C 467.300781 443.355469 467.300781 443.515625 467.394531 443.625 L 469.257812 445.488281 C 469.351562 445.582031 469.351562 445.746094 469.257812 445.851562 L 467.367188 447.742188 C 467.273438 447.835938 467.273438 448 467.367188 448.105469 L 468.574219 449.3125 C 468.667969 449.40625 468.832031 449.40625 468.9375 449.3125 L 472.371094 445.878906 C 472.464844 445.785156 472.464844 445.625 472.371094 445.515625 Z M 540.375 445.449219 C 540.375 446.816406 539.503906 447.945312 538.097656 447.945312 C 536.6875 447.945312 535.800781 446.816406 535.800781 445.449219 C 535.800781 444.082031 536.6875 442.96875 538.070312 442.96875 C 539.449219 442.96875 540.375 444.148438 540.375 445.449219 Z M 490.742188 442.96875 C 489.359375 442.96875 488.476562 444.148438 488.476562 445.449219 C 488.476562 446.804688 489.359375 447.945312 490.769531 447.945312 C 492.179688 447.945312 493.050781 446.832031 493.050781 445.449219 C 493.050781 444.148438 492.179688 442.96875 490.742188 442.96875 Z M 547.300781 442.96875 C 545.917969 442.96875 545.03125 444.148438 545.03125 445.449219 C 545.03125 446.804688 545.917969 447.945312 547.328125 447.945312 C 548.738281 447.945312 549.609375 446.832031 549.609375 445.449219 C 549.609375 444.148438 548.738281 442.96875 547.300781 442.96875 Z M 566.503906 446.214844 C 566.503906 449.730469 565.132812 453.042969 562.652344 455.511719 C 560.167969 457.996094 556.855469 459.363281 553.339844 459.363281 L 469.945312 459.363281 C 467.984375 459.363281 466.09375 458.933594 464.320312 458.101562 L 464.1875 458.035156 C 462.347656 457.136719 460.710938 455.808594 459.464844 454.171875 L 459.410156 454.105469 C 459.289062 453.957031 459.195312 453.796875 459.089844 453.632812 C 458.996094 453.5 458.902344 453.367188 458.804688 453.21875 C 458.699219 453.058594 458.617188 452.894531 458.523438 452.734375 C 458.445312 452.585938 458.351562 452.453125 458.285156 452.304688 C 458.1875 452.132812 458.121094 451.957031 458.042969 451.796875 C 457.976562 451.648438 457.894531 451.515625 457.839844 451.367188 C 457.761719 451.191406 457.707031 451.003906 457.625 450.816406 C 457.570312 450.667969 457.503906 450.519531 457.464844 450.375 C 457.398438 450.1875 457.359375 450 457.304688 449.796875 C 457.261719 449.648438 457.210938 449.5 457.183594 449.355469 C 457.128906 449.152344 457.101562 448.9375 457.0625 448.738281 C 457.035156 448.601562 456.996094 448.453125 456.980469 448.320312 C 456.941406 448.078125 456.914062 447.851562 456.902344 447.609375 C 456.902344 447.503906 456.875 447.382812 456.859375 447.273438 C 456.835938 446.925781 456.820312 446.5625 456.820312 446.199219 C 456.820312 442.683594 458.1875 439.382812 460.671875 436.886719 C 463.152344 434.40625 466.46875 433.039062 469.984375 433.039062 L 474.53125 433.039062 L 474.53125 432.339844 C 474.53125 428.339844 477.78125 425.09375 481.777344 425.09375 C 482.316406 425.09375 482.8125 425.148438 483.308594 425.253906 C 485.253906 425.671875 486.945312 426.890625 487.976562 428.582031 C 488.664062 429.722656 489.023438 431.023438 489.023438 432.339844 L 489.023438 433.039062 L 553.367188 433.039062 C 553.820312 433.039062 554.292969 433.0625 554.734375 433.105469 C 556.089844 433.238281 557.417969 433.585938 558.667969 434.152344 C 561.253906 435.292969 563.441406 437.277344 564.824219 439.746094 C 565.925781 441.707031 566.515625 443.933594 566.515625 446.199219 Z M 476.023438 445.703125 C 476.023438 442.335938 473.285156 439.597656 469.917969 439.597656 C 466.550781 439.597656 463.8125 442.335938 463.8125 445.703125 C 463.8125 449.070312 466.550781 451.808594 469.917969 451.808594 C 473.285156 451.808594 476.023438 449.070312 476.023438 445.703125 Z M 481.015625 445.449219 C 481.015625 443.933594 482.007812 442.953125 483.402344 442.953125 C 483.722656 442.953125 484.128906 443.019531 484.53125 443.167969 C 484.609375 443.207031 484.675781 443.222656 484.769531 443.222656 C 485.199219 443.222656 485.550781 442.871094 485.550781 442.445312 C 485.550781 442.121094 485.335938 441.851562 485.054688 441.746094 C 484.476562 441.492188 483.832031 441.382812 483.308594 441.382812 C 480.8125 441.382812 479.121094 443.085938 479.121094 445.449219 C 479.121094 447.8125 480.8125 449.542969 483.308594 449.542969 C 483.832031 449.542969 484.476562 449.433594 485.054688 449.179688 C 485.335938 449.070312 485.535156 448.789062 485.535156 448.480469 C 485.535156 448.066406 485.199219 447.730469 484.769531 447.730469 C 484.675781 447.730469 484.609375 447.730469 484.53125 447.757812 C 484.128906 447.90625 483.722656 447.972656 483.402344 447.972656 C 482.007812 447.972656 481.015625 447.003906 481.015625 445.476562 Z M 485.578125 432.351562 C 485.578125 430.234375 483.859375 428.5 481.738281 428.5 C 479.617188 428.5 477.902344 430.234375 477.902344 432.351562 C 477.902344 434.472656 479.617188 436.191406 481.738281 436.191406 C 483.859375 436.191406 485.578125 434.472656 485.578125 432.351562 Z M 494.914062 445.449219 C 494.914062 443.222656 493.171875 441.382812 490.753906 441.382812 C 488.339844 441.382812 486.570312 443.222656 486.570312 445.449219 C 486.570312 447.675781 488.378906 449.542969 490.730469 449.542969 C 493.078125 449.542969 494.914062 447.769531 494.914062 445.449219 Z M 503.890625 442.539062 C 503.890625 441.90625 503.382812 441.398438 502.75 441.398438 C 502.347656 441.398438 501.988281 441.625 501.785156 441.933594 L 499.949219 444.738281 L 498.121094 441.933594 C 497.921875 441.625 497.558594 441.398438 497.15625 441.398438 C 496.527344 441.398438 496.015625 441.90625 496.015625 442.539062 L 496.015625 448.617188 C 496.015625 449.113281 496.433594 449.515625 496.929688 449.515625 C 497.425781 449.515625 497.839844 449.097656 497.839844 448.617188 L 497.839844 444.457031 L 499.304688 446.617188 C 499.707031 447.246094 500.242188 447.246094 500.644531 446.617188 L 502.09375 444.457031 L 502.09375 448.617188 C 502.09375 449.113281 502.511719 449.515625 503.007812 449.515625 C 503.503906 449.515625 503.917969 449.097656 503.917969 448.617188 L 503.917969 442.539062 Z M 507.167969 442.308594 C 507.167969 441.800781 506.75 441.371094 506.226562 441.371094 C 505.703125 441.371094 505.289062 441.800781 505.289062 442.308594 L 505.289062 448.574219 C 505.289062 449.085938 505.71875 449.515625 506.226562 449.515625 C 506.738281 449.515625 507.167969 449.085938 507.167969 448.574219 Z M 515.082031 442.308594 C 515.082031 441.800781 514.652344 441.382812 514.15625 441.382812 C 513.660156 441.382812 513.230469 441.8125 513.230469 442.308594 L 513.230469 446.105469 L 510.546875 441.894531 C 510.359375 441.597656 510.023438 441.382812 509.636719 441.382812 C 509.058594 441.382812 508.5625 441.878906 508.5625 442.46875 L 508.5625 448.617188 C 508.5625 449.125 508.976562 449.527344 509.472656 449.527344 C 509.972656 449.527344 510.398438 449.113281 510.398438 448.617188 L 510.398438 444.699219 L 513.136719 449.046875 C 513.324219 449.339844 513.648438 449.542969 514.035156 449.542969 C 514.601562 449.542969 515.082031 449.070312 515.082031 448.496094 Z M 523.523438 445.839844 C 523.523438 445.222656 523.1875 444.871094 522.558594 444.871094 L 520.828125 444.871094 C 520.410156 444.871094 520.046875 445.222656 520.046875 445.664062 C 520.046875 446.078125 520.410156 446.429688 520.828125 446.429688 L 521.738281 446.429688 L 521.738281 447.476562 C 521.351562 447.785156 520.90625 447.90625 520.382812 447.90625 C 519.082031 447.90625 518.0625 446.871094 518.0625 445.460938 C 518.0625 444.054688 519.082031 442.992188 520.542969 442.992188 C 521 442.992188 521.511719 443.085938 522.007812 443.300781 C 522.476562 443.503906 523.027344 443.15625 523.027344 442.589844 C 523.027344 442.230469 522.796875 441.972656 522.488281 441.839844 C 521.871094 441.542969 521.066406 441.371094 520.449219 441.371094 C 517.996094 441.371094 516.183594 443.074219 516.183594 445.449219 C 516.183594 447.824219 518.023438 449.527344 520.34375 449.527344 C 521.308594 449.527344 522.234375 449.234375 522.988281 448.710938 C 523.402344 448.429688 523.535156 448.039062 523.535156 447.542969 L 523.535156 445.839844 Z M 533.117188 447.125 C 533.117188 445.917969 532.460938 445.179688 530.984375 444.726562 L 529.828125 444.375 C 529.386719 444.226562 529.066406 444.082031 529.066406 443.679688 C 529.066406 443.277344 529.5625 443.019531 530.234375 443.019531 C 530.742188 443.019531 531.210938 443.128906 531.667969 443.316406 C 532.246094 443.503906 532.6875 443.101562 532.6875 442.605469 C 532.6875 442.242188 532.472656 441.90625 532.136719 441.785156 C 531.585938 441.570312 530.945312 441.421875 530.152344 441.421875 C 528.433594 441.421875 527.1875 442.308594 527.1875 443.824219 C 527.1875 445.046875 527.832031 445.730469 529.253906 446.148438 L 530.460938 446.496094 C 530.945312 446.644531 531.238281 446.804688 531.238281 447.234375 C 531.238281 447.730469 530.59375 447.945312 529.882812 447.945312 C 529.332031 447.945312 528.785156 447.785156 528.285156 447.570312 C 527.859375 447.410156 527.335938 447.703125 527.292969 448.214844 C 527.242188 448.5625 527.429688 448.925781 527.804688 449.070312 C 528.394531 449.339844 529.144531 449.570312 529.9375 449.570312 C 531.789062 449.570312 533.144531 448.832031 533.144531 447.140625 Z M 542.253906 445.449219 C 542.253906 443.222656 540.511719 441.382812 538.097656 441.382812 C 535.679688 441.382812 533.910156 443.222656 533.910156 445.449219 C 533.910156 447.675781 535.71875 449.542969 538.070312 449.542969 C 540.417969 449.542969 542.253906 447.769531 542.253906 445.449219 Z M 551.472656 445.449219 C 551.472656 443.222656 549.730469 441.382812 547.3125 441.382812 C 544.898438 441.382812 543.128906 443.222656 543.128906 445.449219 C 543.128906 447.675781 544.9375 449.542969 547.289062 449.542969 C 549.636719 449.542969 551.472656 447.769531 551.472656 445.449219 Z M 559.09375 442.308594 C 559.09375 441.800781 558.667969 441.382812 558.167969 441.382812 C 557.671875 441.382812 557.242188 441.8125 557.242188 442.308594 L 557.242188 446.105469 L 554.558594 441.894531 C 554.371094 441.597656 554.035156 441.382812 553.648438 441.382812 C 553.070312 441.382812 552.574219 441.878906 552.574219 442.46875 L 552.574219 448.617188 C 552.574219 449.125 552.988281 449.527344 553.488281 449.527344 C 553.984375 449.527344 554.414062 449.113281 554.414062 448.617188 L 554.414062 444.699219 L 557.148438 449.046875 C 557.335938 449.339844 557.660156 449.542969 558.050781 449.542969 C 558.613281 449.542969 559.09375 449.070312 559.09375 448.496094 Z M 559.09375 442.308594 " fill-opacity="1" fill-rule="nonzero"/></g></svg>